<svg id="visual" viewBox="0 0 900 600" width="900" height="600" xmlns="http://www.w3.org/2000/svg" xmlns:xlink="http://www.w3.org/1999/xlink" version="1.1"><rect x="0" y="0" width="900" height="600" fill="#4FACF7"></rect><path d="M0 181L129 282L257 193L386 216L514 214L643 279L771 173L900 171L900 601L771 601L643 601L514 601L386 601L257 601L129 601L0 601Z" fill="#4facf7"></path><path d="M0 198L129 233L257 316L386 210L514 226L643 312L771 243L900 306L900 601L771 601L643 601L514 601L386 601L257 601L129 601L0 601Z" fill="#459eea"></path><path d="M0 243L129 351L257 227L386 286L514 280L643 312L771 350L900 285L900 601L771 601L643 601L514 601L386 601L257 601L129 601L0 601Z" fill="#3c8fdd"></path><path d="M0 377L129 290L257 298L386 325L514 271L643 307L771 348L900 308L900 601L771 601L643 601L514 601L386 601L257 601L129 601L0 601Z" fill="#3382cf"></path><path d="M0 365L129 373L257 328L386 311L514 332L643 360L771 349L900 405L900 601L771 601L643 601L514 601L386 601L257 601L129 601L0 601Z" fill="#2a74c2"></path><path d="M0 408L129 390L257 386L386 418L514 451L643 412L771 401L900 399L900 601L771 601L643 601L514 601L386 601L257 601L129 601L0 601Z" fill="#2266b4"></path><path d="M0 420L129 397L257 406L386 403L514 422L643 465L771 454L900 430L900 601L771 601L643 601L514 601L386 601L257 601L129 601L0 601Z" fill="#1a59a7"></path><path d="M0 503L129 480L257 472L386 456L514 494L643 440L771 506L900 471L900 601L771 601L643 601L514 601L386 601L257 601L129 601L0 601Z" fill="#114c99"></path><path d="M0 526L129 542L257 540L386 536L514 528L643 543L771 525L900 519L900 601L771 601L643 601L514 601L386 601L257 601L129 601L0 601Z" fill="#083f8c"></path><path d="M0 567L129 533L257 549L386 558L514 574L643 573L771 566L900 549L900 601L771 601L643 601L514 601L386 601L257 601L129 601L0 601Z" fill="#00327e"></path></svg>